<svg width="18" height="18" viewBox="0 0 18 18" fill="none" xmlns="http://www.w3.org/2000/svg">
<path d="M10.6665 6.5H13.9998M10.6665 9.41667H13.1665" stroke="#0C2A66" stroke-width="1.2" stroke-linecap="round" stroke-linejoin="round"/>
<rect x="0.65" y="2.15" width="16.7" height="13.7" rx="2.35" stroke="#0C2A66" stroke-width="1.3"/>
<path d="M3.1665 12.3335C4.17317 10.1827 7.9265 10.0418 8.99984 12.3335M7.74984 6.50016C7.74984 6.94219 7.57424 7.36611 7.26168 7.67867C6.94912 7.99123 6.5252 8.16683 6.08317 8.16683C5.64114 8.16683 5.21722 7.99123 4.90466 7.67867C4.5921 7.36611 4.4165 6.94219 4.4165 6.50016C4.4165 6.05814 4.5921 5.63421 4.90466 5.32165C5.21722 5.00909 5.64114 4.8335 6.08317 4.8335C6.5252 4.8335 6.94912 5.00909 7.26168 5.32165C7.57424 5.63421 7.74984 6.05814 7.74984 6.50016Z" stroke="#0C2A66" stroke-width="1.2" stroke-linecap="round" stroke-linejoin="round"/>
</svg>
