<svg width="93" height="40" viewBox="0 0 93 40" fill="none" xmlns="http://www.w3.org/2000/svg">
<circle cx="20" cy="20" r="20" fill="#387BFE"/>
<path d="M27 4H77C85.8366 4 93 11.1634 93 20C93 28.8366 85.8366 36 77 36H27V4Z" fill="#387BFE"/>
<path d="M45.5811 25V14.878H48.8361C50.0681 14.878 50.9991 15.1043 51.6291 15.557C52.2638 16.0097 52.5811 16.663 52.5811 17.517C52.5811 18.0537 52.4411 18.5133 52.1611 18.896C51.8858 19.2787 51.4005 19.5937 50.7051 19.841C51.1018 19.925 51.4355 20.0463 51.7061 20.205C51.9815 20.3637 52.2008 20.5503 52.3641 20.765C52.5321 20.975 52.6511 21.2083 52.7211 21.465C52.7958 21.7217 52.8331 21.9923 52.8331 22.277C52.8331 23.1917 52.5065 23.8753 51.8531 24.328C51.2045 24.776 50.2338 25 48.9411 25H45.5811ZM46.8761 23.922H48.9271C49.7718 23.922 50.4135 23.7843 50.8521 23.509C51.2955 23.229 51.5171 22.7997 51.5171 22.221C51.5171 21.7963 51.4075 21.4533 51.1881 21.192C50.9735 20.926 50.6818 20.7323 50.3131 20.611C49.9445 20.4897 49.5338 20.429 49.0811 20.429H46.8761V23.922ZM46.8761 19.33H49.0811C49.3471 19.33 49.6108 19.3043 49.8721 19.253C50.1335 19.2017 50.3738 19.113 50.5931 18.987C50.8125 18.861 50.9898 18.693 51.1251 18.483C51.2605 18.2683 51.3281 18 51.3281 17.678C51.3281 17.09 51.1018 16.656 50.6491 16.376C50.2011 16.0913 49.6178 15.949 48.8991 15.949H46.8761V19.33ZM56.7377 25.14C56.2664 25.14 55.8511 25.0583 55.4917 24.895C55.1371 24.727 54.8571 24.4867 54.6517 24.174C54.4511 23.8613 54.3507 23.4833 54.3507 23.04C54.3507 22.2373 54.6307 21.64 55.1907 21.248C55.7507 20.856 56.6491 20.646 57.8857 20.618L59.1737 20.583V20.016C59.1737 19.5727 59.0407 19.2227 58.7747 18.966C58.5087 18.7047 58.0981 18.574 57.5427 18.574C57.1274 18.5787 56.7611 18.6767 56.4437 18.868C56.1264 19.0593 55.9234 19.372 55.8347 19.806H54.6937C54.7217 19.3347 54.8524 18.938 55.0857 18.616C55.3237 18.2893 55.6574 18.042 56.0867 17.874C56.5161 17.706 57.0224 17.622 57.6057 17.622C58.2357 17.622 58.7584 17.7107 59.1737 17.888C59.5937 18.0653 59.9064 18.3267 60.1117 18.672C60.3217 19.0173 60.4267 19.442 60.4267 19.946V25H59.3207L59.2227 23.642C58.9474 24.2067 58.5927 24.5987 58.1587 24.818C57.7294 25.0327 57.2557 25.14 56.7377 25.14ZM57.1227 24.209C57.3701 24.209 57.6127 24.1647 57.8507 24.076C58.0934 23.9873 58.3127 23.8683 58.5087 23.719C58.7094 23.565 58.8704 23.3947 58.9917 23.208C59.1131 23.0167 59.1737 22.8207 59.1737 22.62V21.381L58.1027 21.402C57.5474 21.4113 57.0854 21.4673 56.7167 21.57C56.3481 21.6727 56.0704 21.8337 55.8837 22.053C55.6971 22.2723 55.6037 22.5593 55.6037 22.914C55.6037 23.32 55.7461 23.6373 56.0307 23.866C56.3154 24.0947 56.6794 24.209 57.1227 24.209ZM65.358 25.14C64.7047 25.14 64.126 24.9977 63.622 24.713C63.1227 24.4283 62.7307 24.0083 62.446 23.453C62.166 22.8977 62.026 22.2163 62.026 21.409C62.026 20.653 62.1543 19.9927 62.411 19.428C62.6723 18.8587 63.0503 18.4153 63.545 18.098C64.0443 17.7807 64.6487 17.622 65.358 17.622C65.876 17.622 66.3403 17.7223 66.751 17.923C67.1663 18.119 67.507 18.399 67.773 18.763C68.039 19.127 68.2023 19.5563 68.263 20.051H67.115C67.073 19.799 66.975 19.568 66.821 19.358C66.6717 19.148 66.4733 18.98 66.226 18.854C65.9833 18.728 65.6963 18.665 65.365 18.665C64.7443 18.665 64.238 18.889 63.846 19.337C63.4587 19.785 63.265 20.471 63.265 21.395C63.265 22.2303 63.4423 22.9 63.797 23.404C64.1563 23.9033 64.6837 24.153 65.379 24.153C65.7103 24.153 65.9997 24.09 66.247 23.964C66.4943 23.8333 66.6927 23.663 66.842 23.453C66.9913 23.2383 67.087 23.0097 67.129 22.767H68.256C68.1953 23.2523 68.0297 23.6723 67.759 24.027C67.493 24.3817 67.1523 24.657 66.737 24.853C66.3263 25.0443 65.8667 25.14 65.358 25.14ZM69.9655 25V14.598H71.2535V21.381L74.6555 17.762H76.1395L73.5285 20.52L76.3215 25H74.9495L72.6815 21.367L71.2535 22.844V25H69.9655Z" fill="white"/>
<circle cx="20" cy="20" r="16" fill="white"/>
<path d="M28.0432 19.9482H12.9321" stroke="#1953C3" stroke-width="1.6" stroke-linecap="round" stroke-linejoin="round"/>
<path d="M19.599 27.059L12.0435 20.1701L19.599 13.2812" stroke="#1953C3" stroke-width="1.6" stroke-linecap="round" stroke-linejoin="round"/>
</svg>
