<svg width="72" height="72" viewBox="0 0 72 72" fill="none" xmlns="http://www.w3.org/2000/svg">
<g clip-path="url(#clip0_1915_60307)">
<rect width="72" height="72" fill="#8798B9"/>
<path d="M37.6 32.4444H45.28C47.0722 32.4444 47.9683 32.4444 48.6528 32.7836C49.2549 33.0818 49.7445 33.5578 50.0512 34.1431C50.4 34.8086 50.4 35.6798 50.4 37.4222V52M37.6 52V24.9778C37.6 23.2354 37.6 22.3642 37.2512 21.6987C36.9445 21.1133 36.4549 20.6374 35.8528 20.3391C35.1683 20 34.2722 20 32.48 20H26.72C24.9278 20 24.0317 20 23.3472 20.3391C22.7451 20.6374 22.2556 21.1133 21.9488 21.6987C21.6 22.3642 21.6 23.2354 21.6 24.9778V52M52 52H20" stroke="white" stroke-width="2" stroke-linecap="round" stroke-linejoin="round"/>
<path d="M32 39.667C32.5522 39.667 32.9999 40.1148 33 40.667C33 41.2193 32.5523 41.667 32 41.667H27.2002C26.6479 41.667 26.2002 41.2193 26.2002 40.667C26.2003 40.1148 26.6479 39.667 27.2002 39.667H32ZM45.9619 39.666C46.5142 39.666 46.9619 40.1137 46.9619 40.666C46.9619 41.2183 46.5142 41.666 45.9619 41.666H41.1621C40.6098 41.666 40.1621 41.2183 40.1621 40.666C40.1621 40.1137 40.6098 39.666 41.1621 39.666H45.9619ZM32.1025 33.4502C32.6067 33.5015 33 33.9276 33 34.4453C32.9998 34.9628 32.6066 35.3882 32.1025 35.4395L32 35.4453H27.2002C26.6481 35.4453 26.2004 34.9974 26.2002 34.4453C26.2002 33.893 26.6479 33.4453 27.2002 33.4453H32L32.1025 33.4502ZM32 27.2227C32.5523 27.2227 33 27.6704 33 28.2227C33 28.7749 32.5523 29.2227 32 29.2227H27.2002C26.6479 29.2227 26.2002 28.7749 26.2002 28.2227C26.2002 27.6704 26.6479 27.2227 27.2002 27.2227H32Z" fill="white"/>
</g>
<defs>
<clipPath id="clip0_1915_60307">
<rect width="72" height="72" rx="16" fill="white"/>
</clipPath>
</defs>
</svg>
