<svg width="36" height="36" viewBox="0 0 36 36" fill="none" xmlns="http://www.w3.org/2000/svg">
<g id="Group 15265">
<rect id="Rectangle 141198" width="36" height="36" rx="16" fill="#EFF1F4"/>
<g id="delete">
<g id="Group 2447">
<g id="Group 2446">
<path id="Path 8742" d="M25.7439 13.2759H10.7558C10.6755 13.2694 10.5947 13.2787 10.5182 13.3033C10.4418 13.3279 10.3714 13.3672 10.3113 13.4189C10.2524 13.4733 10.2081 13.5407 10.1822 13.6152C10.1563 13.6898 10.1497 13.7693 10.1628 13.8469L11.7039 26.7669C11.7913 27.4549 12.1384 28.088 12.6792 28.5455C13.22 29.003 13.9167 29.253 14.6365 29.2479H22.1009C22.8396 29.2579 23.555 28.9991 24.1041 28.5232C24.6532 28.0472 24.9955 27.3893 25.0626 26.6809L26.341 13.7889C26.3449 13.7205 26.3336 13.652 26.308 13.5881C26.2824 13.5241 26.2431 13.4661 26.1925 13.4179C26.1318 13.3658 26.0607 13.3264 25.9835 13.3019C25.9063 13.2775 25.8248 13.2686 25.7439 13.2759ZM23.8746 26.6249C23.8298 27.0433 23.6212 27.4296 23.2911 27.7051C22.961 27.9806 22.5343 28.1246 22.0978 28.1079H14.6365C14.2077 28.1246 13.7884 27.9835 13.4638 27.7133C13.1391 27.443 12.9335 27.0639 12.8888 26.6529L11.4079 14.4159H25.0948L23.8746 26.6249Z" fill="#566D80"/>
<path id="Path 8743" d="M27.9047 9.56723H21.8038V8.65423C21.8189 8.23099 21.6592 7.81923 21.3596 7.50919C21.06 7.19915 20.645 7.01613 20.2056 7.00023H16.383C15.9434 6.993 15.5187 7.15386 15.202 7.44758C14.8853 7.7413 14.7024 8.14392 14.6934 8.56723C14.6934 8.5959 14.6934 8.6249 14.6934 8.65423V9.56723H8.59244C8.43532 9.56723 8.28463 9.62734 8.17352 9.73433C8.06242 9.84132 8 9.98643 8 10.1377C8 10.289 8.06242 10.4341 8.17352 10.5411C8.28463 10.6481 8.43532 10.7082 8.59244 10.7082H27.9078C28.065 10.7082 28.2156 10.6481 28.3267 10.5411C28.4379 10.4341 28.5003 10.289 28.5003 10.1377C28.5003 9.98643 28.4379 9.84132 28.3267 9.73433C28.2156 9.62734 28.065 9.56723 27.9078 9.56723H27.9047ZM20.6178 8.65423V9.56723H15.8793V8.65423C15.8704 8.58723 15.877 8.51915 15.8987 8.45491C15.9204 8.39067 15.9567 8.33188 16.0049 8.28279C16.0531 8.2337 16.112 8.19553 16.1774 8.17105C16.2428 8.14657 16.313 8.13639 16.383 8.14123H20.1152C20.1773 8.13702 20.2396 8.14461 20.2986 8.16359C20.3576 8.18257 20.4121 8.21255 20.4591 8.25183C20.5061 8.29112 20.5445 8.33892 20.5723 8.39253C20.6001 8.44613 20.6166 8.50448 20.6209 8.56423C20.6234 8.59423 20.6216 8.62438 20.6178 8.65423Z" fill="#566D80"/>
</g>
</g>
</g>
</g>
</svg>
