<svg width="28" height="28" viewBox="0 0 28 28" fill="none" xmlns="http://www.w3.org/2000/svg">
<path d="M20.4961 9.63538C20.8229 9.44483 21.23 9.45606 21.5469 9.66272C21.8635 9.86964 22.0361 10.2381 21.9932 10.6139L20.7773 21.2164C20.7557 21.9404 20.4054 22.5908 19.8643 23.0455C19.3107 23.5106 18.5917 23.7496 17.8711 23.7496H10.1289C9.40838 23.7496 8.68924 23.5105 8.13574 23.0455C7.59479 22.5908 7.24335 21.9403 7.22168 21.2164L6.00684 10.6139C5.96392 10.2381 6.13653 9.86964 6.45312 9.66272C6.7699 9.4559 7.17704 9.44499 7.50391 9.63538L14 13.4244L20.4961 9.63538ZM14.5039 15.4469C14.1926 15.6284 13.8074 15.6285 13.4961 15.4469L8.21973 12.3688L9.21289 21.0319C9.21718 21.0694 9.2197 21.1074 9.21973 21.1451C9.21973 21.2435 9.265 21.3823 9.42188 21.5143C9.58425 21.6507 9.83712 21.7496 10.1289 21.7496H17.8711C18.163 21.7496 18.4157 21.6508 18.5781 21.5143C18.7353 21.3822 18.7803 21.2436 18.7803 21.1451C18.7803 21.1074 18.7828 21.0694 18.7871 21.0319L19.7793 12.3688L14.5039 15.4469ZM15.917 4.24963C17.0213 4.24981 17.9168 5.14532 17.917 6.24963V6.58362H22.75L22.8525 6.5885C23.3567 6.63983 23.75 7.06594 23.75 7.58362C23.7498 8.10115 23.3566 8.52741 22.8525 8.57874L22.75 8.58362H5.25C4.69797 8.58344 4.25018 8.13564 4.25 7.58362C4.25 7.03144 4.69786 6.58379 5.25 6.58362H10.084V6.24963C10.0842 5.14521 10.9795 4.24963 12.084 4.24963H15.917ZM12.084 6.58362H15.917V6.24963H12.084V6.58362Z" fill="#D91143"/>
</svg>
