<svg width="28" height="28" viewBox="0 0 28 28" fill="none" xmlns="http://www.w3.org/2000/svg">
<path d="M13.4092 4.45366C13.8123 4.4948 14.1268 4.83558 14.127 5.24956C14.127 5.66364 13.8124 6.00431 13.4092 6.04546L13.3271 6.04936H7.25C6.58742 6.04946 6.04993 6.58698 6.0498 7.24956V20.7496C6.0498 21.4122 6.58734 21.9497 7.25 21.9498H20.75C21.4127 21.9498 21.9502 21.4123 21.9502 20.7496V13.9996C21.9504 13.558 22.3084 13.1999 22.75 13.1998C23.1917 13.1998 23.5496 13.5579 23.5498 13.9996V20.7496C23.5498 22.296 22.2964 23.5494 20.75 23.5494H7.25C5.70368 23.5493 4.4502 22.2959 4.4502 20.7496V7.24956C4.45032 5.70333 5.70376 4.44985 7.25 4.44975H13.3271L13.4092 4.45366ZM21.2373 4.44975C21.8815 4.43434 22.4686 4.69098 22.8887 5.11089C23.3087 5.53091 23.5651 6.11799 23.5498 6.76225C23.5342 7.41331 23.2449 8.05812 22.6943 8.60893H22.6934L15.3066 15.9957C15.0554 16.2469 14.7352 16.4182 14.3867 16.4878L13.4404 16.6773C12.181 16.929 11.0704 15.8185 11.3223 14.5591L11.5117 13.6128C11.5814 13.2645 11.7527 12.9442 12.0039 12.6929L19.3906 5.3062C19.9413 4.75539 20.5862 4.46547 21.2373 4.44975ZM21.2754 6.04936C21.0925 6.05392 20.8253 6.13434 20.5225 6.43706L13.1348 13.8238C13.1069 13.8516 13.0878 13.8877 13.0801 13.9263L12.8916 14.8736C12.8638 15.0133 12.9872 15.1367 13.127 15.1089L14.0732 14.9195C14.1119 14.9117 14.1479 14.8927 14.1758 14.8648L21.5625 7.47807C21.8656 7.17487 21.9458 6.90725 21.9502 6.72417C21.9547 6.53429 21.8806 6.36454 21.7578 6.24175C21.635 6.11907 21.4651 6.04482 21.2754 6.04936Z" fill="#1C274C"/>
</svg>
