<svg width="24" height="25" viewBox="0 0 24 25" fill="none" xmlns="http://www.w3.org/2000/svg">
<path fill-rule="evenodd" clip-rule="evenodd" d="M12 19.4696C16.3559 19.4696 20.3568 16.9243 22.5162 12.803C20.3568 8.68164 16.3559 6.13632 12 6.13632C7.64408 6.13632 3.64319 8.68164 1.48377 12.803C3.64319 16.9243 7.64408 19.4696 12 19.4696ZM0.145723 12.5056C2.49194 7.75498 7.03335 4.80298 12 4.80298C16.9667 4.80298 21.5081 7.75498 23.8543 12.5056L24 12.803L23.8543 13.1003C21.5081 17.851 16.9667 20.803 12 20.803C7.03334 20.803 2.49194 17.851 0.145723 13.1003L0 12.803L0.145723 12.5056ZM12 15.4696C13.4613 15.4696 14.6496 14.2736 14.6496 12.803C14.6496 11.3323 13.4613 10.1363 12 10.1363C10.5387 10.1363 9.35041 11.3323 9.35041 12.803C9.35041 14.2736 10.5387 15.4696 12 15.4696ZM12 8.80298C14.1912 8.80298 15.9744 10.5976 15.9744 12.803C15.9744 15.0083 14.1912 16.803 12 16.803C9.80879 16.803 8.02561 15.0083 8.02561 12.803C8.02561 10.5976 9.80879 8.80298 12 8.80298Z" fill="black"/>
</svg>
