<svg width="36" height="36" viewBox="0 0 36 36" fill="none" xmlns="http://www.w3.org/2000/svg">
<g id="Group 17600">
<rect id="Rectangle 141194" width="36" height="36" rx="6" fill="#EFF1F4"/>
<g id="file-upload-svgrepo-com">
<g id="Group 12787">
<g id="Group 12786">
<path id="Path 23765" d="M23.3204 21.8185L21.871 20.369C21.8374 20.335 21.7973 20.308 21.7532 20.2896C21.709 20.2712 21.6617 20.2617 21.6139 20.2617C21.566 20.2617 21.5187 20.2712 21.4745 20.2896C21.4304 20.308 21.3904 20.335 21.3567 20.369L19.9073 21.8185C19.8391 21.8867 19.8008 21.9791 19.8008 22.0756C19.8008 22.172 19.8391 22.2645 19.9073 22.3327C19.9755 22.4009 20.068 22.4393 20.1644 22.4393C20.2609 22.4393 20.3534 22.4009 20.4216 22.3327L21.2522 21.5022V25.7022C21.2567 25.7952 21.2968 25.8829 21.3642 25.9471C21.4316 26.0113 21.5212 26.0471 21.6143 26.0471C21.7074 26.0471 21.7969 26.0113 21.8644 25.9471C21.9318 25.8829 21.9719 25.7952 21.9764 25.7022V21.5022L22.807 22.3327C22.8752 22.4009 22.9677 22.4393 23.0641 22.4393C23.1606 22.4393 23.2531 22.4009 23.3213 22.3327C23.3895 22.2645 23.4278 22.172 23.4278 22.0756C23.4278 21.9791 23.3895 21.8867 23.3213 21.8185H23.3204Z" fill="#1D2534"/>
</g>
</g>
<g id="Group 12789">
<g id="Group 12788">
<path id="Path 23766" d="M21.614 17.7266C20.5392 17.7266 19.4885 18.0453 18.5948 18.6424C17.7012 19.2395 17.0047 20.0883 16.5934 21.0812C16.182 22.0742 16.0744 23.1669 16.2841 24.221C16.4938 25.2752 17.0114 26.2435 17.7714 27.0035C18.5314 27.7635 19.4997 28.281 20.5538 28.4907C21.6079 28.7004 22.7006 28.5928 23.6936 28.1815C24.6866 27.7702 25.5353 27.0736 26.1324 26.18C26.7295 25.2863 27.0483 24.2356 27.0483 23.1608C27.0464 21.7201 26.4733 20.339 25.4546 19.3202C24.4359 18.3015 23.0547 17.7284 21.614 17.7266ZM21.614 27.8717C20.6816 27.8717 19.7701 27.5952 18.9949 27.0772C18.2196 26.5592 17.6154 25.8229 17.2585 24.9615C16.9017 24.1001 16.8084 23.1522 16.9903 22.2377C17.1722 21.3232 17.6212 20.4832 18.2805 19.8239C18.9398 19.1646 19.7798 18.7156 20.6943 18.5337C21.6087 18.3518 22.5566 18.4452 23.4181 18.802C24.2795 19.1588 25.0157 19.763 25.5338 20.5383C26.0518 21.3136 26.3283 22.225 26.3283 23.1574C26.3283 24.4077 25.8316 25.6068 24.9475 26.4909C24.0634 27.375 22.8643 27.8717 21.614 27.8717Z" fill="#1D2534"/>
</g>
</g>
<g id="Group 12791">
<g id="Group 12790">
<path id="Path 23767" d="M16.5413 26.7856H9.29502V24.2493C9.29741 24.2003 9.28981 24.1513 9.27269 24.1053C9.25557 24.0593 9.22928 24.0172 9.19542 23.9816C9.16155 23.9461 9.12082 23.9178 9.07569 23.8984C9.03057 23.8791 8.98198 23.8691 8.93288 23.8691C8.88379 23.8691 8.8352 23.8791 8.79007 23.8984C8.74494 23.9178 8.70421 23.9461 8.67035 23.9816C8.63649 24.0172 8.6102 24.0593 8.59307 24.1053C8.57595 24.1513 8.56835 24.2003 8.57074 24.2493V27.1482C8.57074 27.2444 8.60894 27.3366 8.67694 27.4046C8.74493 27.4726 8.83715 27.5108 8.93331 27.5108H16.5413C16.6343 27.5062 16.722 27.4661 16.7862 27.3987C16.8504 27.3313 16.8863 27.2417 16.8863 27.1486C16.8863 27.0555 16.8504 26.966 16.7862 26.8985C16.722 26.8311 16.6343 26.791 16.5413 26.7865V26.7856Z" fill="#1D2534"/>
</g>
</g>
<g id="Group 12793">
<g id="Group 12792">
<path id="Path 23768" d="M8.93479 22.4365C8.84179 22.441 8.7541 22.4812 8.68988 22.5486C8.62566 22.616 8.58984 22.7055 8.58984 22.7987C8.58984 22.8918 8.62566 22.9813 8.68988 23.0487C8.7541 23.1161 8.84179 23.1563 8.93479 23.1608C9.02779 23.1563 9.11548 23.1161 9.1797 23.0487C9.24392 22.9813 9.27974 22.8918 9.27974 22.7987C9.27974 22.7055 9.24392 22.616 9.1797 22.5486C9.11548 22.4812 9.02779 22.441 8.93479 22.4365Z" fill="#1D2534"/>
</g>
</g>
<g id="Group 12795">
<g id="Group 12794">
<path id="Path 23769" d="M23.6813 12.7606L17.8845 6.96371C17.8507 6.9299 17.8106 6.90309 17.7665 6.88485C17.7224 6.86661 17.6751 6.85729 17.6273 6.85742H8.93331C8.83715 6.85742 8.74493 6.89562 8.67694 6.96362C8.60894 7.03161 8.57074 7.12383 8.57074 7.21999V21.35C8.56835 21.399 8.57595 21.448 8.59307 21.4941C8.6102 21.5401 8.63649 21.5821 8.67035 21.6177C8.70421 21.6532 8.74494 21.6815 8.79007 21.7009C8.8352 21.7202 8.88378 21.7302 8.93288 21.7302C8.98198 21.7302 9.03057 21.7202 9.07569 21.7009C9.12082 21.6815 9.16155 21.6532 9.19542 21.6177C9.22928 21.5821 9.25557 21.5401 9.27269 21.4941C9.28981 21.448 9.29741 21.399 9.29502 21.35V7.58171H17.2665V13.016C17.2665 13.0636 17.2758 13.1108 17.2941 13.1547C17.3123 13.1987 17.339 13.2387 17.3727 13.2724C17.4063 13.306 17.4463 13.3327 17.4903 13.351C17.5343 13.3692 17.5814 13.3786 17.629 13.3786H23.0633V16.6357C23.0609 16.6847 23.0685 16.7338 23.0856 16.7798C23.1028 16.8258 23.1291 16.8678 23.1629 16.9034C23.1968 16.939 23.2375 16.9673 23.2826 16.9866C23.3278 17.0059 23.3764 17.0159 23.4255 17.0159C23.4746 17.0159 23.5231 17.0059 23.5683 16.9866C23.6134 16.9673 23.6541 16.939 23.688 16.9034C23.7219 16.8678 23.7481 16.8258 23.7653 16.7798C23.7824 16.7338 23.79 16.6847 23.7876 16.6357V13.0169C23.7877 12.9692 23.7783 12.9221 23.7601 12.8781C23.7418 12.8341 23.7151 12.7942 23.6813 12.7606ZM17.9907 12.6543V8.09428L22.5507 12.6543H17.9907Z" fill="#1D2534"/>
</g>
</g>
</g>
</g>
</svg>
