<svg width="16" height="16" viewBox="0 0 16 16" fill="none" xmlns="http://www.w3.org/2000/svg">
<path d="M6.74462 11.991H1.92188" stroke="#3A4656" stroke-width="1.5" stroke-linecap="round" stroke-linejoin="round"/>
<path fill-rule="evenodd" clip-rule="evenodd" d="M14.0788 11.991C14.0788 13.0514 13.2192 13.911 12.1588 13.911C11.0984 13.911 10.2388 13.0514 10.2388 11.991C10.2388 10.9299 11.0984 10.071 12.1588 10.071C13.2192 10.071 14.0788 10.9299 14.0788 11.991Z" stroke="#3A4656" stroke-width="1.5" stroke-linecap="round" stroke-linejoin="round"/>
<path d="M9.25537 4.17475H14.0789" stroke="#3A4656" stroke-width="1.5" stroke-linecap="round" stroke-linejoin="round"/>
<path fill-rule="evenodd" clip-rule="evenodd" d="M1.92188 4.17476C1.92188 5.23594 2.78148 6.09476 3.84188 6.09476C4.90227 6.09476 5.76188 5.23594 5.76188 4.17476C5.76188 3.11437 4.90227 2.25476 3.84188 2.25476C2.78148 2.25476 1.92188 3.11437 1.92188 4.17476Z" stroke="#3A4656" stroke-width="1.5" stroke-linecap="round" stroke-linejoin="round"/>
</svg>
