<svg width="18" height="18" viewBox="0 0 18 18" fill="none" xmlns="http://www.w3.org/2000/svg">
<path fill-rule="evenodd" clip-rule="evenodd" d="M2.00161 4.50031C1.52586 4.48879 1.04829 4.79455 0.893834 5.27069C0.855335 5.38973 0.834252 5.54525 0.819127 5.68684C0.803086 5.8414 0.790711 6.02715 0.781086 6.22923C0.761299 6.69197 0.751061 7.15511 0.750378 7.61831C0.746712 8.58693 0.770086 9.5949 0.803544 9.90737C0.86221 10.4546 1.16287 10.9643 1.42412 11.4078L1.45345 11.4573C1.53274 11.5916 1.61111 11.7256 1.68811 11.8633C2.03369 12.483 2.40951 12.9006 2.75005 13.2793L2.75784 13.2874C2.94942 13.5001 3.12679 13.6978 3.29408 13.9181C3.13208 14.0967 3.04183 14.3337 3.042 14.5801V15.54C3.042 15.7946 3.13858 16.0388 3.31048 16.2188C3.48239 16.3989 3.71554 16.5 3.95865 16.5H7.62525C7.86836 16.5 8.10152 16.3989 8.27342 16.2188C8.44533 16.0388 8.5419 15.7946 8.5419 15.54V14.5801C8.54189 14.3371 8.45391 14.1032 8.29571 13.9255C8.13751 13.7478 7.92085 13.6395 7.68942 13.6225C7.62755 13.0772 7.54734 12.3409 7.54001 12.1312C7.53359 11.9507 7.47584 11.7745 7.42176 11.6406C7.36532 11.5024 7.30009 11.3684 7.22651 11.2393C7.15094 11.1052 7.07021 10.9744 6.98452 10.8472L6.96664 10.8213L6.96206 10.8141L6.96022 10.8117L6.95931 10.8102L6.95472 10.8035L5.46792 8.84036L5.45417 8.82596L5.45234 8.82308L5.44134 8.8106L5.39779 8.75924C5.34516 8.69617 5.29412 8.63167 5.24471 8.56581C5.10435 8.38234 4.98197 8.18455 4.87943 7.97542C4.77493 7.75079 4.57693 7.53528 4.27306 7.51944C4.01411 7.50504 3.81107 7.64903 3.69283 7.75991C3.62767 7.82135 3.56828 7.88918 3.51545 7.96246L3.49483 7.67351L3.49254 7.64183C3.44762 7.00921 3.39308 6.24363 3.21571 5.63068C3.00763 4.91358 2.54564 4.51375 2.00161 4.50031ZM6.76544 13.6206C6.70585 13.0926 6.63161 12.4028 6.62336 12.1667L6.61465 12.1249C6.60418 12.0868 6.59148 12.0495 6.57661 12.0131C6.53565 11.9138 6.48833 11.8176 6.43498 11.7251C6.3734 11.6149 6.30719 11.5076 6.23653 11.4035L6.22461 11.3857L4.77264 9.46866L4.76439 9.45906L4.70756 9.39187C4.64404 9.31566 4.58245 9.23772 4.52285 9.15811C4.39908 8.99451 4.28564 8.82263 4.18323 8.64357L4.18002 8.64885C4.13878 8.729 4.11586 8.80244 4.10898 8.85044C4.08378 9.02036 4.09661 9.13747 4.10944 9.20083C4.11356 9.22101 4.11892 9.24089 4.12548 9.26035V9.26179L4.96514 11.008L4.18552 11.5067L4.17407 11.4904L4.14244 11.4448C3.97882 11.2084 3.81687 10.9708 3.65662 10.732C3.37841 10.3173 3.04567 9.8085 2.88159 9.50322C2.75876 9.27523 2.70193 8.97332 2.66572 8.7002C2.62845 8.38629 2.60018 8.07128 2.58093 7.75559L2.58001 7.74503C2.53235 7.07401 2.48285 6.41066 2.33802 5.91004C2.27477 5.69164 2.19319 5.58173 2.13452 5.52845C2.09236 5.48714 2.03731 5.46326 1.97961 5.46125C1.85448 5.45789 1.77153 5.54861 1.76098 5.58125C1.76007 5.58413 1.75594 5.60045 1.74999 5.63596C1.74166 5.6874 1.73493 5.73911 1.72982 5.791C1.71653 5.91964 1.70507 6.08475 1.6959 6.27771C1.67705 6.72575 1.66742 7.17416 1.66703 7.62263C1.6629 8.60133 1.68811 9.55314 1.71469 9.80082C1.74769 10.1104 1.93194 10.4411 2.23352 10.9542L2.23489 10.9561C2.31281 11.0886 2.39668 11.2312 2.47964 11.38C2.76976 11.9003 3.08234 12.2492 3.4247 12.6294L3.4325 12.638C3.68733 12.9212 3.96415 13.2284 4.2254 13.6206H6.76544ZM7.62525 15.54V14.5801H3.95865V15.54H7.62525ZM17.1066 5.27069C16.9517 4.79455 16.4746 4.48879 15.9989 4.50079C15.4553 4.51423 14.9928 4.91358 14.7847 5.63068C14.6074 6.24363 14.5528 7.00921 14.5079 7.64183L14.5056 7.67351L14.485 7.96246C14.43 7.88663 14.3709 7.81911 14.3076 7.75991C14.1894 7.64951 13.9868 7.50552 13.7274 7.51895C13.4235 7.53527 13.2255 7.75079 13.121 7.97494C13.0185 8.18407 12.8961 8.38186 12.7557 8.56533C12.6927 8.64936 12.6269 8.73116 12.5587 8.8106L12.5481 8.82308L12.5463 8.82548L12.5325 8.84036L11.0462 10.8035L11.0411 10.8102L11.0402 10.8117L11.0389 10.8141L11.0338 10.8213C11.0292 10.8273 11.0233 10.836 11.0159 10.8472C10.9298 10.9741 10.8491 11.1049 10.7739 11.2393C10.7002 11.3684 10.6348 11.5024 10.5782 11.6406C10.5246 11.7745 10.4669 11.9507 10.4605 12.1312C10.4531 12.3409 10.3734 13.0772 10.311 13.6225C10.0796 13.6395 9.86295 13.7478 9.70475 13.9255C9.54654 14.1032 9.45856 14.3371 9.45855 14.5801V15.54C9.45855 15.7946 9.55513 16.0388 9.72703 16.2188C9.89894 16.3989 10.1321 16.5 10.3752 16.5H14.0418C14.2849 16.5 14.5181 16.3989 14.69 16.2188C14.8619 16.0388 14.9585 15.7946 14.9585 15.54V14.5801C14.9586 14.3335 14.8682 14.0963 14.7059 13.9177C14.8732 13.6978 15.0506 13.5001 15.2422 13.2874L15.2499 13.2788C15.5905 12.9006 15.9663 12.483 16.3119 11.8633C16.3889 11.7256 16.4677 11.5921 16.5465 11.4573L16.5759 11.4078C16.8371 10.9643 17.1378 10.4546 17.1965 9.90737C17.2299 9.5949 17.2533 8.58693 17.2496 7.61831C17.2491 7.15511 17.239 6.69197 17.2194 6.22923C17.2116 6.04809 17.1989 5.86723 17.1813 5.68684C17.1667 5.54525 17.1456 5.38925 17.1066 5.27069ZM13.7751 13.6201C14.0363 13.2279 14.3127 12.9207 14.568 12.6375L14.5753 12.6289C14.9177 12.2488 15.2307 11.8993 15.5204 11.3795C15.6029 11.2307 15.6867 11.0886 15.7651 10.9557L15.7665 10.9533C16.0685 10.4406 16.2523 10.1099 16.2853 9.80034C16.3119 9.55266 16.3366 8.60085 16.333 7.62215C16.3311 7.13929 16.3224 6.66218 16.3041 6.27723C16.2949 6.08427 16.2835 5.91916 16.2702 5.79052C16.2651 5.73863 16.2583 5.68692 16.25 5.63548C16.2474 5.61704 16.2437 5.59877 16.239 5.58077C16.2285 5.54813 16.1455 5.45741 16.0209 5.46077C15.963 5.46266 15.9078 5.48655 15.8655 5.52797C15.8068 5.58077 15.7252 5.69116 15.662 5.90956C15.5172 6.4097 15.4677 7.07353 15.42 7.74455L15.4191 7.75511C15.3962 8.08342 15.3723 8.41461 15.3343 8.69972C15.2985 8.97284 15.2412 9.27475 15.1189 9.50322C14.9543 9.80802 14.6216 10.3168 14.3434 10.732C14.1831 10.9707 14.0212 11.2081 13.8576 11.4443L13.8255 11.4899L13.8145 11.5062L13.0349 11.007L13.8741 9.26131L13.8745 9.25987C13.8811 9.24041 13.8864 9.22053 13.8906 9.20035C13.9034 9.13699 13.9162 9.01988 13.891 8.84996C13.8778 8.77921 13.8538 8.71114 13.82 8.64837L13.8168 8.64309C13.704 8.84228 13.5798 9.02084 13.4776 9.15763C13.4002 9.26081 13.3195 9.36118 13.2356 9.45858L13.2269 9.46818L11.7754 11.3853L11.7635 11.403L11.7144 11.4765C11.6732 11.5403 11.6191 11.6276 11.565 11.7246C11.5117 11.8172 11.4644 11.9134 11.4234 12.0126C11.4057 12.0574 11.393 12.0945 11.3854 12.124C11.3818 12.1379 11.3789 12.152 11.3766 12.1662C11.3684 12.4023 11.2941 13.0926 11.2346 13.6201H13.7751ZM10.3752 15.54V14.5801H14.0418V15.54H10.3752Z" fill="#0C2A66"/>
<path d="M5.64209 1.9558C6.84811 1.20179 7.90195 1.50537 8.53441 1.98962C8.79378 2.18761 8.92387 2.28661 8.99997 2.28661C9.07606 2.28661 9.20615 2.18761 9.46552 1.98962C10.098 1.50537 11.151 1.20179 12.3578 1.9558C13.9419 2.94575 14.3002 6.20928 10.6478 8.96299C9.95153 9.48766 9.6038 9.75 8.99997 9.75C8.39614 9.75 8.0484 9.48766 7.35294 8.96299C3.69969 6.20928 4.05806 2.94492 5.64209 1.9558Z" stroke="#0C2A66" stroke-linecap="round" stroke-linejoin="round"/>
</svg>
