<svg width="18" height="18" viewBox="0 0 18 18" fill="none" xmlns="http://www.w3.org/2000/svg">
<path d="M2.61719 0C1.16913 0.000242693 -0.00450325 1.17401 -0.00488281 2.62207V15.3818C-0.00474167 16.8301 1.16898 18.0037 2.61719 18.0039H11.71C11.7168 18.0041 11.7236 18.0049 11.7305 18.0049C11.7373 18.0049 11.7442 18.0041 11.751 18.0039H15.377C16.8252 18.0037 17.9999 16.8301 18 15.3818V2.62207C17.9996 1.17396 16.8251 0.000157435 15.377 0H2.61719ZM10.9307 16.4043H2.61719C2.05255 16.4041 1.59487 15.9464 1.59473 15.3818V7.06836H10.9307V16.4043ZM16.4004 15.3818C16.4002 15.9464 15.9417 16.4041 15.377 16.4043H12.5303V7.06836H16.4004V15.3818ZM15.377 1.59961C15.9415 1.59977 16.4 2.0577 16.4004 2.62207V5.46875H1.59473V2.62207C1.59511 2.05775 2.0527 1.59985 2.61719 1.59961H15.377Z" fill="#0C2A66"/>
</svg>
