<svg width="26" height="26" viewBox="0 0 26 26" fill="none" xmlns="http://www.w3.org/2000/svg">
<g id="Image On">
<g id="Group">
<path id="Vector" d="M22.1312 0H3.59973C2.64503 0 1.72942 0.379257 1.05434 1.05434C0.379257 1.72942 0 2.64503 0 3.59973V22.1456C0.00265974 23.0995 0.38277 24.0135 1.05728 24.688C1.73178 25.3625 2.64584 25.7426 3.59973 25.7453H22.1312C23.0851 25.7426 23.9991 25.3625 24.6736 24.688C25.3481 24.0135 25.7282 23.0995 25.7309 22.1456V3.59973C25.7309 3.12701 25.6378 2.65892 25.4569 2.22218C25.276 1.78544 25.0108 1.3886 24.6766 1.05434C24.3423 0.720072 23.9455 0.454917 23.5087 0.274014C23.072 0.0931099 22.6039 0 22.1312 0ZM1.43989 3.59973C1.43989 3.02691 1.66745 2.47755 2.0725 2.0725C2.47755 1.66745 3.02691 1.43989 3.59973 1.43989H22.1312C22.704 1.43989 23.2534 1.66745 23.6584 2.0725C24.0635 2.47755 24.291 3.02691 24.291 3.59973V16.0692L18.7042 10.4824C18.2976 10.0811 17.7493 9.85608 17.1779 9.85608C16.6066 9.85608 16.0583 10.0811 15.6516 10.4824L9.08573 17.0627C8.94821 17.1946 8.76507 17.2682 8.57457 17.2682C8.38407 17.2682 8.20093 17.1946 8.06341 17.0627L7.25706 16.2564C6.84812 15.8595 6.30065 15.6375 5.73078 15.6375C5.1609 15.6375 4.61344 15.8595 4.20449 16.2564L1.43989 19.021V3.59973ZM24.291 22.1456C24.291 22.7184 24.0635 23.2678 23.6584 23.6728C23.2534 24.0779 22.704 24.3054 22.1312 24.3054H3.59973C3.02691 24.3054 2.47755 24.0779 2.0725 23.6728C1.66745 23.2678 1.43989 22.7184 1.43989 22.1456V21.0657L5.23401 17.2787C5.36927 17.1484 5.55012 17.076 5.73798 17.0771C5.93013 17.0759 6.11553 17.148 6.25634 17.2787L7.04828 18.0851C7.45491 18.4864 8.00324 18.7114 8.57457 18.7114C9.14589 18.7114 9.69423 18.4864 10.1009 18.0851L16.6812 11.5048C16.7481 11.4373 16.8277 11.3837 16.9155 11.3472C17.0032 11.3106 17.0973 11.2918 17.1923 11.2918C17.2874 11.2918 17.3815 11.3106 17.4692 11.3472C17.5569 11.3837 17.6366 11.4373 17.7035 11.5048L24.2982 18.0995L24.291 22.1456Z" fill="#1D2534"/>
<path id="Vector_2" d="M7.19349 10.8049C6.48153 10.8049 5.78555 10.5938 5.19358 10.1983C4.60161 9.80273 4.14022 9.24053 3.86777 8.58276C3.59531 7.925 3.52402 7.20121 3.66292 6.50293C3.80182 5.80465 4.14466 5.16324 4.64809 4.65981C5.15152 4.15638 5.79293 3.81353 6.49121 3.67464C7.18949 3.53574 7.91328 3.60703 8.57104 3.87948C9.22881 4.15194 9.79101 4.61333 10.1866 5.2053C10.5821 5.79727 10.7932 6.49324 10.7932 7.2052C10.7932 8.15991 10.414 9.07552 9.73888 9.7506C9.0638 10.4257 8.1482 10.8049 7.19349 10.8049ZM7.19349 5.04536C6.76631 5.04536 6.34873 5.17204 5.99354 5.40936C5.63836 5.64669 5.36153 5.98401 5.19805 6.37867C5.03458 6.77333 4.99181 7.2076 5.07515 7.62657C5.15848 8.04554 5.36419 8.43038 5.66625 8.73244C5.96831 9.0345 6.35315 9.24021 6.77212 9.32354C7.19109 9.40688 7.62536 9.36411 8.02002 9.20064C8.41468 9.03716 8.752 8.76033 8.98933 8.40515C9.22665 8.04996 9.35333 7.63238 9.35333 7.2052C9.35333 6.63238 9.12577 6.08302 8.72072 5.67797C8.31568 5.27292 7.76631 5.04536 7.19349 5.04536Z" fill="#566D80"/>
</g>
</g>
</svg>
