<svg width="34" height="36" viewBox="0 0 34 36" fill="none" xmlns="http://www.w3.org/2000/svg">
<g id="Group 5425">
<g id="Rectangle 139874">
<path id="Vector" d="M3.375 0H20.25C23.8304 0 27.2642 1.42232 29.7959 3.95406C32.3277 6.4858 33.75 9.91958 33.75 13.5V32.625C33.75 33.5201 33.3944 34.3786 32.7615 35.0115C32.1286 35.6444 31.2701 36 30.375 36H3.375C2.47989 36 1.62145 35.6444 0.988515 35.0115C0.355579 34.3786 0 33.5201 0 32.625L0 3.375C0 2.47989 0.355579 1.62145 0.988515 0.988515C1.62145 0.355579 2.47989 0 3.375 0Z" fill="white"/>
<path id="Vector_2" d="M3.375 0.5625H20.25C23.6812 0.5625 26.9719 1.92555 29.3982 4.35181C31.8244 6.77806 33.1875 10.0688 33.1875 13.5V32.625C33.1875 33.3709 32.8912 34.0863 32.3637 34.6137C31.8363 35.1412 31.1209 35.4375 30.375 35.4375H3.375C3.00566 35.4375 2.63993 35.3648 2.2987 35.2234C1.95747 35.0821 1.64743 34.8749 1.38626 34.6137C0.858816 34.0863 0.5625 33.3709 0.5625 32.625V3.375C0.5625 2.62908 0.858816 1.91371 1.38626 1.38626C1.91371 0.858816 2.62908 0.5625 3.375 0.5625Z" stroke="#999999"/>
</g>
<path id="Path 24071" d="M5.92198 26.6617C10.0609 29.4472 19.7708 14.8034 16.7468 9.86801C13.7228 4.93264 14.834 28.0151 25.5002 26.6617C36.1663 25.3083 1.7831 23.8762 5.92198 26.6617Z" stroke="#F51340" stroke-linecap="round" stroke-linejoin="round"/>
<path id="Rectangle 139877" d="M22.5 0C25.4837 0 28.3452 1.18526 30.455 3.29505C32.5647 5.40483 33.75 8.26631 33.75 11.25H24.75C24.1533 11.25 23.581 11.0129 23.159 10.591C22.7371 10.169 22.5 9.59674 22.5 9V0Z" fill="#F51340"/>
</g>
</svg>
