<svg width="18" height="18" viewBox="0 0 18 18" fill="none" xmlns="http://www.w3.org/2000/svg">
<path d="M2.25 7.5C2.25 4.67157 2.25 3.25736 3.12868 2.37868C4.00736 1.5 5.42157 1.5 8.25 1.5H9.75C12.5784 1.5 13.9927 1.5 14.8713 2.37868C15.75 3.25736 15.75 4.67157 15.75 7.5V10.5C15.75 13.3284 15.75 14.7427 14.8713 15.6213C13.9927 16.5 12.5784 16.5 9.75 16.5H8.25C5.42157 16.5 4.00736 16.5 3.12868 15.6213C2.25 14.7427 2.25 13.3284 2.25 10.5V7.5Z" stroke="#0C2A66" stroke-width="1.4"/>
<path d="M6 9H12" stroke="#0C2A66" stroke-width="1.4" stroke-linecap="round"/>
<path d="M6 6H12" stroke="#0C2A66" stroke-width="1.4" stroke-linecap="round"/>
<path d="M6 12H9.75" stroke="#0C2A66" stroke-width="1.4" stroke-linecap="round"/>
</svg>
