<svg width="18" height="18" viewBox="0 0 18 18" fill="none" xmlns="http://www.w3.org/2000/svg">
<path d="M9.0002 13.0499C8.54767 13.05 8.11171 12.8796 7.77914 12.5728C7.44657 12.2659 7.2418 11.845 7.2056 11.3939C6.00516 10.969 4.99344 10.1336 4.34902 9.03533C3.70459 7.93701 3.46891 6.64634 3.68356 5.39114C3.89821 4.13595 4.5494 2.99694 5.52218 2.17519C6.49496 1.35343 7.72678 0.901757 9.0002 0.899902C10.3546 0.899706 11.6596 1.40848 12.6565 2.32535C13.6534 3.24221 14.2693 4.50021 14.3822 5.8499C14.386 5.90845 14.3775 5.96713 14.3574 6.02223C14.3372 6.07733 14.3058 6.12764 14.2652 6.16996C14.2246 6.21228 14.1756 6.24569 14.1214 6.26806C14.0671 6.29043 14.0088 6.30127 13.9502 6.2999C13.8296 6.29688 13.7145 6.24915 13.6272 6.16599C13.5399 6.08282 13.4866 5.97016 13.4777 5.8499C13.3975 5.05415 13.1068 4.29414 12.6353 3.64812C12.1638 3.00209 11.5287 2.49339 10.7953 2.17438C10.0619 1.85537 9.2567 1.73759 8.46266 1.83315C7.66861 1.92872 6.91438 2.23417 6.27761 2.71808C5.64084 3.20199 5.14455 3.84686 4.83981 4.5863C4.53508 5.32575 4.43292 6.13305 4.54385 6.92509C4.65479 7.71714 4.9748 8.4653 5.47096 9.09258C5.96712 9.71985 6.62148 10.2036 7.3667 10.4939C7.50229 10.2009 7.7142 9.94978 7.9802 9.76682C8.24621 9.58387 8.55652 9.47583 8.87864 9.45401C9.20075 9.4322 9.5228 9.49743 9.81104 9.64285C10.0993 9.78828 10.3431 10.0086 10.517 10.2806C10.6908 10.5526 10.7883 10.8664 10.7992 11.1891C10.8101 11.5118 10.734 11.8314 10.579 12.1146C10.4239 12.3977 10.1955 12.634 9.91772 12.7985C9.63995 12.9631 9.32304 13.0499 9.0002 13.0499ZM4.5083 10.7999H4.5902C4.9412 11.1428 5.3309 11.4452 5.753 11.6999H4.5083C4.0034 11.6999 3.6002 12.1022 3.6002 12.5999C3.6002 13.778 4.16 14.6555 5.1059 15.2576C6.0689 15.8723 7.4387 16.1999 9.0002 16.1999C10.5617 16.1999 11.9315 15.8723 12.8945 15.2576C13.8395 14.6546 14.4002 13.7789 14.4002 12.5999C14.4002 12.3612 14.3054 12.1323 14.1366 11.9635C13.9678 11.7947 13.7389 11.6999 13.5002 11.6999H11.6633C11.7136 11.402 11.7136 11.0978 11.6633 10.7999H13.5002C13.9776 10.7999 14.4354 10.9895 14.773 11.3271C15.1106 11.6647 15.3002 12.1225 15.3002 12.5999C15.3002 14.1218 14.5505 15.2693 13.3787 16.0172C12.2249 16.7525 10.6697 17.0999 9.0002 17.0999C7.3307 17.0999 5.7755 16.7525 4.6217 16.0172C3.4499 15.2702 2.7002 14.1209 2.7002 12.5999C2.7002 11.5982 3.5129 10.7999 4.5083 10.7999ZM12.6002 6.2999C12.6004 6.90888 12.4461 7.50795 12.1518 8.04107C11.8574 8.57419 11.4327 9.02392 10.9172 9.3482C10.6769 9.10593 10.3929 8.9114 10.0802 8.7749C10.6487 8.52678 11.1145 8.09048 11.3991 7.53935C11.6838 6.98822 11.77 6.35589 11.6432 5.74868C11.5165 5.14146 11.1846 4.5964 10.7032 4.20515C10.2219 3.81389 9.62049 3.60031 9.0002 3.60031C8.3799 3.60031 7.77851 3.81389 7.29717 4.20515C6.81583 4.5964 6.48388 5.14146 6.35715 5.74868C6.23042 6.35589 6.31663 6.98822 6.60128 7.53935C6.88594 8.09048 7.35168 8.52678 7.9202 8.7749C7.6052 8.9126 7.3217 9.1079 7.0832 9.3482C6.39957 8.91829 5.88035 8.27101 5.609 7.5104C5.47056 7.12184 5.39993 6.71238 5.4002 6.2999C5.4002 5.34512 5.77948 4.42945 6.45461 3.75432C7.12974 3.07919 8.04542 2.6999 9.0002 2.6999C9.95498 2.6999 10.8706 3.07919 11.5458 3.75432C12.2209 4.42945 12.6002 5.34512 12.6002 6.2999Z" fill="#0C2A66"/>
</svg>
