<svg width="201" height="38" viewBox="0 0 201 38" fill="none" xmlns="http://www.w3.org/2000/svg">
<path d="M33.5253 19.8952V12.4628C33.5253 10.6394 32.5641 8.95474 31.0013 8.04303L19.205 1.159C17.6945 0.280332 15.8309 0.280332 14.3204 1.159L2.52405 8.04303C0.96123 8.95474 0 10.6394 0 12.4628V15.7265L16.7659 5.94876L28.1961 12.6214V16.7901L24.4165 18.9967V12.7865L16.7725 8.32051L0 18.0982V25.5372C0 27.3606 0.96123 29.0453 2.52405 29.957L14.3204 36.841C15.8309 37.7197 17.6945 37.7197 19.205 36.841L31.0013 29.957C32.5641 29.0453 33.5253 27.3606 33.5253 25.5372V22.2735L16.7659 32.0512L5.32927 25.3786V21.2099L9.1088 19.0033V25.2135L16.7594 29.6795L33.5253 19.8952ZM16.7659 23.4627L9.11534 19.0033L16.7659 14.5373L24.41 18.9967L16.7659 23.4627Z" fill="#387BFE"/>
<path d="M47.9616 29.5648H54.5804V13.9844H63.289V8.42871H39.246V13.9844H47.9546V29.5648H47.9616ZM64.2046 8.42871L64.1976 29.5716H93.9368V16.3276L101.974 27.2352C103.051 28.7022 104.798 29.5716 106.65 29.5716H112.416V8.42871H105.798V21.6727L97.7599 10.7651C96.6836 9.29806 94.9363 8.42871 93.0841 8.42871H87.318V24.0159H70.8234V21.7746H86.4024V16.2189H70.8234V13.9844H86.4024V8.42871H64.2046Z" fill="#387BFE"/>
<path d="M171.208 16.0236V17.3795H169.395V21.4576H167.592V17.3795H165.779V16.0236H171.208ZM160.94 21.4576V18.9472V18.1739H160.962C161.038 18.354 161.235 18.64 161.355 18.8518L163.278 21.4682H165.091V16.0236H163.442V18.5552V19.2967H163.42C163.321 19.0849 163.168 18.8307 163.026 18.6082L161.202 16.0236H159.291V21.4576H160.94ZM155.533 19.2755H158.395V18.121H155.533V17.2418H158.526V16.0236H153.731V21.4576H158.581V20.2395H155.533V19.2755ZM147.242 21.4576V18.2163C147.242 17.9409 147.231 17.6443 147.198 17.3689H147.22C147.253 17.5807 147.329 17.8561 147.417 18.0998L148.487 21.4576H150.049L151.109 18.0892C151.185 17.8561 151.295 17.5384 151.316 17.3583H151.349C151.306 17.6549 151.284 17.9515 151.284 18.2057V21.4576H152.933V16.0236H150.322L149.503 18.8307C149.416 19.0955 149.35 19.3709 149.328 19.5615H149.318C149.307 19.3603 149.241 19.1061 149.165 18.8413L148.291 16.0236H145.702V21.4576H147.242ZM142.851 16.0236H139.607V21.4576H141.409V19.731H142.851C144.238 19.731 145.112 19.0001 145.112 17.8244C145.101 16.7227 144.227 16.0236 142.851 16.0236ZM142.359 18.5764H141.398V17.1888H142.359C142.905 17.1888 143.189 17.4218 143.189 17.8773C143.189 18.3434 142.905 18.5764 142.359 18.5764ZM138.875 16.0236H137.072V21.4576H138.875V16.0236ZM130.562 19.3497C130.562 20.7479 131.611 21.6165 133.435 21.6165C135.248 21.6165 136.297 20.7479 136.297 19.3603V16.0236H134.494V19.2226C134.494 19.8581 134.09 20.2501 133.435 20.2501C132.747 20.2501 132.375 19.8581 132.375 19.2226V16.0236H130.562V19.3497ZM128.323 21.3411C129.393 20.9068 130.038 19.9958 130.038 18.7459C130.038 16.9875 128.76 15.8753 126.771 15.8753C124.783 15.8753 123.505 16.9875 123.505 18.7459C123.505 20.5043 124.783 21.6165 126.771 21.6165H126.924C127.274 22.4004 128.039 22.8453 129.218 22.8453C129.448 22.8453 129.633 22.8347 129.83 22.8029V21.5C129.655 21.5318 129.524 21.5424 129.306 21.5424C129.044 21.5424 128.661 21.5106 128.323 21.3411ZM126.782 20.303C125.93 20.303 125.395 19.7098 125.395 18.7353C125.395 17.7714 125.93 17.1676 126.782 17.1676C127.634 17.1676 128.17 17.7608 128.17 18.7353C128.17 19.7098 127.634 20.303 126.782 20.303ZM120.021 19.2755H122.883V18.121H120.021V17.2418H123.014V16.0236H118.218V21.4576H123.068V20.2395H120.021V19.2755ZM163.889 29.4233L161.705 26.1925L163.824 23.9893H161.737L159.717 26.1184V23.9893H157.914V29.4339H159.717V28.025L160.427 27.3047L161.836 29.4339H163.889V29.4233ZM156.21 27.2836C156.964 26.987 157.303 26.3832 157.303 25.7264C157.303 24.7096 156.625 23.9787 155.009 23.9787H151.808V29.4127H153.61V27.5166H154.462L155.5 29.4127H157.455L156.21 27.2836ZM154.583 26.4256H153.599V25.1333H154.583C155.162 25.1333 155.402 25.3663 155.402 25.7582C155.402 26.1713 155.151 26.4256 154.583 26.4256ZM147.941 23.8304C145.953 23.8304 144.675 24.9426 144.675 26.701C144.675 28.4593 145.953 29.5716 147.941 29.5716C149.929 29.5716 151.207 28.4593 151.207 26.701C151.207 24.9426 149.929 23.8304 147.941 23.8304ZM147.941 28.2687C147.089 28.2687 146.554 27.6755 146.554 26.701C146.554 25.737 147.089 25.1333 147.941 25.1333C148.793 25.1333 149.328 25.7264 149.328 26.701C149.328 27.6755 148.793 28.2687 147.941 28.2687ZM139.454 29.4233L140.262 26.1713C140.295 26.023 140.317 25.8536 140.338 25.6735H140.371C140.382 25.8536 140.415 26.023 140.448 26.1713L141.256 29.4233H143.255L144.839 23.9787H143.026L142.305 27.0399C142.261 27.2306 142.239 27.4107 142.239 27.6013H142.206C142.195 27.4213 142.152 27.2306 142.108 27.0399L141.3 23.9787H139.443L138.645 27.0399C138.591 27.22 138.547 27.4107 138.547 27.6013H138.514C138.503 27.4213 138.481 27.2306 138.438 27.0399L137.728 23.9787H135.914L137.498 29.4233H139.454ZM130.016 23.9893V25.3451H131.829V29.4339H133.631V25.3451H135.434V23.9893H130.016ZM126.455 27.2412H129.317V26.0866H126.455V25.2074H129.448V23.9893H124.652V29.4339H129.502V28.2157H126.455V27.2412ZM119.868 29.4233V26.9128V26.1396H119.89C119.966 26.3196 120.163 26.6056 120.272 26.8175L122.195 29.4339H124.008V23.9893H122.38V26.5209V27.2624H122.358C122.26 27.0505 122.107 26.7963 121.965 26.5739L120.141 23.9893H118.218V29.4339H119.868V29.4233ZM196.081 14.0216V11.5112V10.7379H196.103C196.179 10.918 196.376 11.204 196.485 11.4158L198.408 14.0322H200.221V8.57701H198.571V11.1086V11.8501H198.55C198.451 11.6383 198.298 11.384 198.156 11.1616L196.332 8.57701H194.42V14.0216H196.081ZM190.488 8.42871C188.5 8.42871 187.222 9.54094 187.222 11.2993C187.222 13.0577 188.5 14.1699 190.488 14.1699C192.476 14.1699 193.754 13.0577 193.754 11.2993C193.754 9.54094 192.487 8.42871 190.488 8.42871ZM190.488 12.867C189.636 12.867 189.101 12.2738 189.101 11.2993C189.101 10.3354 189.636 9.7316 190.488 9.7316C191.34 9.7316 191.875 10.3248 191.875 11.2993C191.886 12.2632 191.351 12.867 190.488 12.867ZM186.556 8.57701H184.753V14.0216H186.556V8.57701ZM178.833 8.57701V9.93286H180.646V14.0216H182.448V9.94345H184.262V8.57701H178.833ZM177.544 8.57701H175.304L173.054 14.0216H174.922L175.304 12.9412H177.533L177.915 14.0216H179.783L177.544 8.57701ZM175.709 11.8183L176.102 10.7379C176.255 10.3566 176.353 10.0812 176.419 9.68923H176.43C176.506 10.0812 176.604 10.3566 176.746 10.7379L177.129 11.8183H175.709ZM168.554 8.57701V9.93286H170.367V14.0216H172.169V9.94345H173.983V8.57701H168.554ZM167.046 11.8819C167.8 11.5959 168.139 10.9815 168.139 10.3248C168.139 9.3079 167.461 8.57701 165.845 8.57701H162.633V14.0216H164.436V12.1255H165.288L166.325 14.0216H168.281L167.046 11.8819ZM165.419 11.0239H164.436V9.7316H165.419C165.998 9.7316 166.238 9.96464 166.238 10.3566C166.238 10.7697 165.987 11.0239 165.419 11.0239ZM158.777 8.42871C156.789 8.42871 155.511 9.54094 155.511 11.2993C155.511 13.0577 156.778 14.1699 158.777 14.1699C160.765 14.1699 162.043 13.0577 162.043 11.2993C162.032 9.54094 160.765 8.42871 158.777 8.42871ZM158.777 12.867C157.925 12.867 157.39 12.2738 157.39 11.2993C157.39 10.3354 157.925 9.7316 158.777 9.7316C159.629 9.7316 160.164 10.3248 160.164 11.2993C160.164 12.2632 159.629 12.867 158.777 12.867ZM152.802 8.57701H149.558V14.0216H151.36V12.295H152.802C154.189 12.295 155.063 11.5641 155.063 10.3883C155.052 9.27612 154.189 8.57701 152.802 8.57701ZM152.311 11.1404H151.349V9.75279H152.311C152.857 9.75279 153.141 9.98583 153.141 10.4413C153.152 10.9074 152.857 11.1404 152.311 11.1404ZM148.804 12.295C148.804 11.3311 148.269 10.8438 146.969 10.6426L145.898 10.4837C145.33 10.3883 145.145 10.2718 145.145 10.0388C145.145 9.79516 145.451 9.65745 145.986 9.65745C146.685 9.65745 147.384 9.92227 147.799 10.3354L148.815 9.25493C148.138 8.69353 147.166 8.42871 146.117 8.42871C144.446 8.42871 143.463 9.07486 143.463 10.1341C143.463 11.098 144.074 11.6489 145.298 11.8501L146.412 12.0196C146.914 12.1043 147.056 12.1997 147.056 12.4539C147.056 12.7399 146.718 12.9094 146.073 12.9094C145.309 12.9094 144.631 12.5916 144.183 12.0938L142.993 13.1318C143.583 13.7674 144.719 14.1805 145.986 14.1805C147.745 14.1805 148.804 13.4814 148.804 12.295ZM138.241 14.0216V11.5112V10.7379H138.263C138.339 10.918 138.536 11.204 138.645 11.4158L140.568 14.0322H142.381V8.57701H140.732V11.1086V11.8501H140.71C140.612 11.6383 140.459 11.384 140.317 11.1616L138.503 8.57701H136.592V14.0216H138.241ZM133.97 8.57701H131.731L129.481 14.0216H131.348L131.731 12.9412H133.959L134.341 14.0216H136.209L133.97 8.57701ZM132.135 11.8183L132.517 10.7379C132.67 10.3566 132.768 10.0812 132.834 9.68923H132.845C132.921 10.0812 133.02 10.3566 133.162 10.7379L133.544 11.8183H132.135ZM128.071 11.8819C128.825 11.5959 129.164 10.9815 129.164 10.3248C129.164 9.3079 128.486 8.57701 126.87 8.57701H123.669V14.0216H125.472V12.1255H126.324L127.361 14.0216H129.317L128.071 11.8819ZM126.444 11.0239H125.461V9.7316H126.444C127.023 9.7316 127.263 9.96464 127.263 10.3566C127.274 10.7697 127.012 11.0239 126.444 11.0239ZM117.738 8.57701V9.93286H119.551V14.0216H121.353V9.94345H123.167V8.57701H117.738Z" fill="#387BFE"/>
</svg>
