<svg width="18" height="12" viewBox="0 0 18 12" fill="none" xmlns="http://www.w3.org/2000/svg">
<g clip-path="url(#clip0_5031_8291)">
<path d="M10.7423 6.00063H1.2731C1.05863 6.00063 0.87428 6.13481 0.800781 6.32459V1.91613C0.800781 1.63448 1.0273 1.40723 1.30804 1.40723H10.7761C11.0568 1.40723 11.2833 1.63448 11.2833 1.91613V8.81591C11.2833 9.08184 11.0809 9.30063 10.8207 9.32239C11.0628 9.28613 11.2484 9.0758 11.2484 8.82074V6.50953" stroke="#0C2A66" stroke-width="0.9" stroke-miterlimit="10"/>
<path d="M11.2484 8.8206C11.2484 9.07565 11.0628 9.28598 10.8207 9.32225C10.8062 9.32346 10.7917 9.32466 10.7761 9.32466H6.04206C6.04206 8.62357 5.47576 8.05543 4.77692 8.05543C4.07809 8.05543 3.51179 8.62357 3.51179 9.32466H0.801986C0.800781 9.32466 0.800781 9.32466 0.800781 9.32346V6.32444C0.87428 6.13466 1.05863 6.00049 1.2731 6.00049H11.2484V8.8206Z" stroke="#0C2A66" stroke-width="0.9" stroke-miterlimit="10"/>
<path d="M17.0066 5.88014C15.78 5.8741 14.5535 5.86805 13.3269 5.8608C13.151 5.85959 13.0088 5.71574 13.0088 5.53926V4.14673C13.0088 3.96904 13.1522 3.8252 13.3293 3.8252H15.174" stroke="#0C2A66" stroke-width="0.9" stroke-miterlimit="10"/>
<path d="M15.0186 10.5941C15.7173 10.5941 16.2837 10.0259 16.2837 9.32489C16.2837 8.62392 15.7173 8.05566 15.0186 8.05566C14.3198 8.05566 13.7534 8.62392 13.7534 9.32489C13.7534 10.0259 14.3198 10.5941 15.0186 10.5941Z" stroke="#0C2A66" stroke-width="0.9" stroke-miterlimit="10"/>
<path d="M11.2832 2.67627H11.376H14.1641L15.1774 3.82462L16.9908 5.87957L17.0438 5.94001V9.32462H16.2956" stroke="#0C2A66" stroke-width="0.9" stroke-miterlimit="10"/>
<path d="M13.7532 9.3252H10.8085H10.7759H6.22266" stroke="#0C2A66" stroke-width="0.9" stroke-miterlimit="10"/>
<path d="M6.04199 9.32489V9.32973C6.03958 10.0284 5.47449 10.5941 4.77686 10.5941C4.07922 10.5941 3.51413 10.0284 3.51172 9.32973V9.32489C3.51172 8.6238 4.07802 8.05566 4.77686 8.05566C5.47569 8.05566 6.04199 8.6238 6.04199 9.32489Z" stroke="#0C2A66" stroke-width="0.9" stroke-miterlimit="10"/>
</g>
<defs>
<clipPath id="clip0_5031_8291">
<rect width="18" height="11" fill="white" transform="translate(0 0.500977)"/>
</clipPath>
</defs>
</svg>
